<svg width="40" height="40" viewBox="0 0 40 40" fill="none" xmlns="http://www.w3.org/2000/svg">
<path d="M1.42857 10.3125H38.5714C39.3604 10.3125 40 9.75289 40 9.0625V5.9375C40 5.24711 39.3604 4.6875 38.5714 4.6875H1.42857C0.639554 4.6875 0 5.24711 0 5.9375V9.0625C0 9.75289 0.639554 10.3125 1.42857 10.3125ZM1.42857 22.8125H38.5714C39.3604 22.8125 40 22.2529 40 21.5625V18.4375C40 17.7471 39.3604 17.1875 38.5714 17.1875H1.42857C0.639554 17.1875 0 17.7471 0 18.4375V21.5625C0 22.2529 0.639554 22.8125 1.42857 22.8125ZM1.42857 35.3125H38.5714C39.3604 35.3125 40 34.7529 40 34.0625V30.9375C40 30.2471 39.3604 29.6875 38.5714 29.6875H1.42857C0.639554 29.6875 0 30.2471 0 30.9375V34.0625C0 34.7529 0.639554 35.3125 1.42857 35.3125Z" fill="black"/>
</svg>
