<svg width="130" height="52" viewBox="0 0 130 52" fill="none" xmlns="http://www.w3.org/2000/svg">
<path d="M36.25 25.9999H3.75C2.75544 25.9999 1.80161 26.4493 1.09835 27.2492C0.395088 28.0491 0 29.134 0 30.2652C0 31.3964 0.395088 32.4813 1.09835 33.2812C1.80161 34.0811 2.75544 34.5305 3.75 34.5305H36.25C37.2446 34.5305 38.1984 34.0811 38.9017 33.2812C39.6049 32.4813 40 31.3964 40 30.2652C40 29.134 39.6049 28.0491 38.9017 27.2492C38.1984 26.4493 37.2446 25.9999 36.25 25.9999V25.9999ZM37.5 37.374H2.5C2.16848 37.374 1.85054 37.5238 1.61612 37.7904C1.3817 38.057 1.25 38.4186 1.25 38.7957V40.2175C1.25 41.7258 1.77678 43.1723 2.71447 44.2388C3.65215 45.3053 4.92392 45.9045 6.25 45.9045H33.75C35.0761 45.9045 36.3479 45.3053 37.2855 44.2388C38.2232 43.1723 38.75 41.7258 38.75 40.2175V38.7957C38.75 38.4186 38.6183 38.057 38.3839 37.7904C38.1495 37.5238 37.8315 37.374 37.5 37.374ZM4.58125 23.1564H35.4187C38.1195 23.1564 39.6859 19.2555 38.1391 16.4137C35 10.645 28.0898 6.10422 20 6.09534C11.9109 6.10422 5 10.645 1.86094 16.4128C0.3125 19.2546 1.88047 23.1564 4.58125 23.1564ZM30 13.2041C30.2472 13.2041 30.4889 13.2875 30.6945 13.4437C30.9 13.5999 31.0602 13.822 31.1548 14.0818C31.2495 14.3416 31.2742 14.6274 31.226 14.9032C31.1778 15.179 31.0587 15.4324 30.8839 15.6312C30.7091 15.83 30.4863 15.9655 30.2439 16.0203C30.0014 16.0752 29.7501 16.047 29.5216 15.9394C29.2932 15.8318 29.098 15.6496 28.9607 15.4158C28.8233 15.182 28.75 14.9071 28.75 14.6259C28.75 14.2488 28.8817 13.8872 29.1161 13.6205C29.3505 13.3539 29.6685 13.2041 30 13.2041V13.2041ZM20 10.3606C20.2472 10.3606 20.4889 10.444 20.6945 10.6002C20.9 10.7564 21.0602 10.9785 21.1548 11.2383C21.2495 11.4981 21.2742 11.7839 21.226 12.0597C21.1778 12.3355 21.0587 12.5889 20.8839 12.7877C20.7091 12.9865 20.4863 13.1219 20.2439 13.1768C20.0014 13.2317 19.7501 13.2035 19.5216 13.0959C19.2932 12.9883 19.098 12.8061 18.9607 12.5722C18.8233 12.3384 18.75 12.0636 18.75 11.7824C18.75 11.4053 18.8817 11.0437 19.1161 10.777C19.3505 10.5104 19.6685 10.3606 20 10.3606V10.3606ZM10 13.2041C10.2472 13.2041 10.4889 13.2875 10.6945 13.4437C10.9 13.5999 11.0602 13.822 11.1548 14.0818C11.2495 14.3416 11.2742 14.6274 11.226 14.9032C11.1778 15.179 11.0587 15.4324 10.8839 15.6312C10.7091 15.83 10.4863 15.9655 10.2439 16.0203C10.0014 16.0752 9.75005 16.047 9.52165 15.9394C9.29324 15.8318 9.09801 15.6496 8.96066 15.4158C8.82331 15.182 8.75 14.9071 8.75 14.6259C8.75 14.2488 8.8817 13.8872 9.11612 13.6205C9.35054 13.3539 9.66848 13.2041 10 13.2041V13.2041Z" fill="black"/>
<path d="M47.8232 25.3359L50.5625 33.0703L53.2871 25.3359H56.1729V36H53.9683V33.085L54.188 28.0532L51.3096 36H49.8008L46.9297 28.0605L47.1494 33.085V36H44.9521V25.3359H47.8232ZM61.5635 30.1406L63.7827 25.3359H66.1851L62.6841 32.1328V36H60.4502V32.1328L56.9492 25.3359H59.3589L61.5635 30.1406ZM70.8945 36V25.3359H74.6299C75.9238 25.3359 76.9053 25.585 77.5742 26.083C78.2432 26.5762 78.5776 27.3013 78.5776 28.2583C78.5776 28.7808 78.4434 29.2422 78.1748 29.6426C77.9062 30.0381 77.5327 30.3286 77.0542 30.5142C77.6011 30.6509 78.0308 30.9268 78.3433 31.3418C78.6606 31.7568 78.8193 32.2646 78.8193 32.8652C78.8193 33.8906 78.4922 34.667 77.8379 35.1943C77.1836 35.7217 76.251 35.9902 75.04 36H70.8945ZM73.0918 31.3564V34.2349H74.9741C75.4917 34.2349 75.8945 34.1128 76.1826 33.8687C76.4756 33.6196 76.6221 33.2778 76.6221 32.8433C76.6221 31.8667 76.1167 31.3711 75.106 31.3564H73.0918ZM73.0918 29.8037H74.7178C75.8262 29.7842 76.3804 29.3423 76.3804 28.478C76.3804 27.9946 76.2388 27.6479 75.9556 27.438C75.6772 27.2231 75.2354 27.1157 74.6299 27.1157H73.0918V29.8037ZM88.5459 25.3359V32.3599C88.5459 33.5269 88.1797 34.4497 87.4473 35.1284C86.7197 35.8071 85.7236 36.1465 84.459 36.1465C83.2139 36.1465 82.2251 35.8169 81.4927 35.1577C80.7603 34.4985 80.3867 33.5928 80.3721 32.4404V25.3359H82.5693V32.3745C82.5693 33.0728 82.7354 33.583 83.0674 33.9053C83.4043 34.2227 83.8682 34.3813 84.459 34.3813C85.6943 34.3813 86.3218 33.7319 86.3413 32.4331V25.3359H88.5459ZM94.2954 32.0962H92.5449V36H90.3477V25.3359H94.3101C95.5698 25.3359 96.5415 25.6167 97.2251 26.1782C97.9087 26.7397 98.2505 27.5332 98.2505 28.5586C98.2505 29.2861 98.0918 29.894 97.7744 30.3823C97.4619 30.8657 96.9858 31.2515 96.3462 31.5396L98.6533 35.8975V36H96.2949L94.2954 32.0962ZM92.5449 30.3164H94.3174C94.8691 30.3164 95.2964 30.1772 95.5991 29.8989C95.9019 29.6157 96.0532 29.2275 96.0532 28.7344C96.0532 28.2314 95.9092 27.8359 95.6211 27.5479C95.3379 27.2598 94.9009 27.1157 94.3101 27.1157H92.5449V30.3164ZM108.365 34.6523C107.97 35.126 107.411 35.4946 106.688 35.7583C105.965 36.0171 105.165 36.1465 104.286 36.1465C103.363 36.1465 102.552 35.9463 101.854 35.5459C101.161 35.1406 100.624 34.5547 100.243 33.7881C99.8667 33.0215 99.6738 32.1206 99.6641 31.0854V30.3604C99.6641 29.2959 99.8423 28.3755 100.199 27.5991C100.56 26.8179 101.078 26.2222 101.751 25.812C102.43 25.397 103.224 25.1895 104.132 25.1895C105.396 25.1895 106.385 25.4922 107.098 26.0977C107.811 26.6982 108.233 27.5747 108.365 28.7271H106.227C106.129 28.1167 105.912 27.6699 105.575 27.3867C105.243 27.1035 104.784 26.9619 104.198 26.9619C103.451 26.9619 102.882 27.2427 102.491 27.8042C102.101 28.3657 101.903 29.2007 101.898 30.3091V30.9902C101.898 32.1084 102.11 32.9531 102.535 33.5244C102.96 34.0957 103.583 34.3813 104.403 34.3813C105.228 34.3813 105.816 34.2056 106.168 33.854V32.0156H104.168V30.397H108.365V34.6523ZM116.568 31.3784H112.35V34.2349H117.301V36H110.152V25.3359H117.286V27.1157H112.35V29.6572H116.568V31.3784ZM122.538 32.0962H120.787V36H118.59V25.3359H122.552C123.812 25.3359 124.784 25.6167 125.467 26.1782C126.151 26.7397 126.493 27.5332 126.493 28.5586C126.493 29.2861 126.334 29.894 126.017 30.3823C125.704 30.8657 125.228 31.2515 124.588 31.5396L126.896 35.8975V36H124.537L122.538 32.0962ZM120.787 30.3164H122.56C123.111 30.3164 123.539 30.1772 123.841 29.8989C124.144 29.6157 124.295 29.2275 124.295 28.7344C124.295 28.2314 124.151 27.8359 123.863 27.5479C123.58 27.2598 123.143 27.1157 122.552 27.1157H120.787V30.3164Z" fill="black"/>
</svg>
